<mxfile host="app.diagrams.net" agent="Mozilla/5.0" version="24.7.17">
  <diagram name="Luồng Đăng nhập" id="login_flow">
    <mxGraphModel dx="1422" dy="794" grid="1" gridSize="10" guides="1" tooltips="1" connect="1" arrows="1" fold="1" page="1" pageScale="1" pageWidth="1169" pageHeight="827" math="0" shadow="0">
      <root>
        <mxCell id="0" />
        <mxCell id="1" parent="0" />
        
        <!-- Title -->
        <mxCell id="title" value="Sơ đồ luồng Đăng nhập người dùng" style="text;html=1;strokeColor=none;fillColor=none;align=center;verticalAlign=middle;whiteSpace=wrap;rounded=0;fontSize=16;fontStyle=1;" vertex="1" parent="1">
          <mxGeometry x="400" y="20" width="300" height="30" as="geometry" />
        </mxCell>
        
        <!-- Actors -->
        <mxCell id="client" value="Client/Frontend" style="shape=umlActor;verticalLabelPosition=bottom;verticalAlign=top;html=1;outlineConnect=0;" vertex="1" parent="1">
          <mxGeometry x="50" y="80" width="30" height="60" as="geometry" />
        </mxCell>
        
        <mxCell id="controller" value="AuthController" style="rounded=1;whiteSpace=wrap;html=1;" vertex="1" parent="1">
          <mxGeometry x="200" y="90" width="100" height="40" as="geometry" />
        </mxCell>
        
        <mxCell id="service" value="AuthService" style="rounded=1;whiteSpace=wrap;html=1;" vertex="1" parent="1">
          <mxGeometry x="350" y="90" width="100" height="40" as="geometry" />
        </mxCell>
        
        <mxCell id="repo" value="UserRepository" style="rounded=1;whiteSpace=wrap;html=1;" vertex="1" parent="1">
          <mxGeometry x="500" y="90" width="100" height="40" as="geometry" />
        </mxCell>
        
        <mxCell id="database" value="Database" style="shape=cylinder3;whiteSpace=wrap;html=1;boundedLbl=1;backgroundOutline=1;size=15;" vertex="1" parent="1">
          <mxGeometry x="650" y="80" width="60" height="60" as="geometry" />
        </mxCell>
        
        <mxCell id="bcrypt" value="BcryptProvider" style="rounded=1;whiteSpace=wrap;html=1;" vertex="1" parent="1">
          <mxGeometry x="750" y="90" width="100" height="40" as="geometry" />
        </mxCell>
        
        <mxCell id="token_gen" value="GenerateTokensProvider" style="rounded=1;whiteSpace=wrap;html=1;" vertex="1" parent="1">
          <mxGeometry x="880" y="90" width="140" height="40" as="geometry" />
        </mxCell>
        
        <!-- Lifelines -->
        <mxCell id="client_lifeline" value="" style="endArrow=none;dashed=1;html=1;rounded=0;" edge="1" parent="1">
          <mxGeometry width="50" height="50" relative="1" as="geometry">
            <mxPoint x="65" y="160" as="sourcePoint" />
            <mxPoint x="65" y="750" as="targetPoint" />
          </mxGeometry>
        </mxCell>
        
        <mxCell id="controller_lifeline" value="" style="endArrow=none;dashed=1;html=1;rounded=0;" edge="1" parent="1">
          <mxGeometry width="50" height="50" relative="1" as="geometry">
            <mxPoint x="250" y="160" as="sourcePoint" />
            <mxPoint x="250" y="750" as="targetPoint" />
          </mxGeometry>
        </mxCell>
        
        <mxCell id="service_lifeline" value="" style="endArrow=none;dashed=1;html=1;rounded=0;" edge="1" parent="1">
          <mxGeometry width="50" height="50" relative="1" as="geometry">
            <mxPoint x="400" y="160" as="sourcePoint" />
            <mxPoint x="400" y="750" as="targetPoint" />
          </mxGeometry>
        </mxCell>
        
        <mxCell id="repo_lifeline" value="" style="endArrow=none;dashed=1;html=1;rounded=0;" edge="1" parent="1">
          <mxGeometry width="50" height="50" relative="1" as="geometry">
            <mxPoint x="550" y="160" as="sourcePoint" />
            <mxPoint x="550" y="750" as="targetPoint" />
          </mxGeometry>
        </mxCell>
        
        <mxCell id="database_lifeline" value="" style="endArrow=none;dashed=1;html=1;rounded=0;" edge="1" parent="1">
          <mxGeometry width="50" height="50" relative="1" as="geometry">
            <mxPoint x="680" y="160" as="sourcePoint" />
            <mxPoint x="680" y="750" as="targetPoint" />
          </mxGeometry>
        </mxCell>
        
        <mxCell id="bcrypt_lifeline" value="" style="endArrow=none;dashed=1;html=1;rounded=0;" edge="1" parent="1">
          <mxGeometry width="50" height="50" relative="1" as="geometry">
            <mxPoint x="800" y="160" as="sourcePoint" />
            <mxPoint x="800" y="750" as="targetPoint" />
          </mxGeometry>
        </mxCell>
        
        <mxCell id="token_lifeline" value="" style="endArrow=none;dashed=1;html=1;rounded=0;" edge="1" parent="1">
          <mxGeometry width="50" height="50" relative="1" as="geometry">
            <mxPoint x="950" y="160" as="sourcePoint" />
            <mxPoint x="950" y="750" as="targetPoint" />
          </mxGeometry>
        </mxCell>
        
        <!-- Messages -->
        <!-- 1. POST login request -->
        <mxCell id="msg1" value="" style="endArrow=classic;html=1;rounded=0;" edge="1" parent="1">
          <mxGeometry width="50" height="50" relative="1" as="geometry">
            <mxPoint x="70" y="190" as="sourcePoint" />
            <mxPoint x="245" y="190" as="targetPoint" />
          </mxGeometry>
        </mxCell>
        <mxCell id="msg1_label" value="POST /api/auth/login&#xa;LoginUserDto" style="text;html=1;align=center;verticalAlign=middle;resizable=0;points=[];autosize=1;strokeColor=none;fillColor=none;" vertex="1" parent="1">
          <mxGeometry x="110" y="160" width="110" height="40" as="geometry" />
        </mxCell>
        
        <!-- 2. Call service -->
        <mxCell id="msg2" value="" style="endArrow=classic;html=1;rounded=0;" edge="1" parent="1">
          <mxGeometry width="50" height="50" relative="1" as="geometry">
            <mxPoint x="255" y="220" as="sourcePoint" />
            <mxPoint x="395" y="220" as="targetPoint" />
          </mxGeometry>
        </mxCell>
        <mxCell id="msg2_label" value="login(loginUserDto)" style="text;html=1;align=center;verticalAlign=middle;resizable=0;points=[];autosize=1;strokeColor=none;fillColor=none;" vertex="1" parent="1">
          <mxGeometry x="290" y="200" width="110" height="30" as="geometry" />
        </mxCell>
        
        <!-- 3. Get user by email -->
        <mxCell id="msg3" value="" style="endArrow=classic;html=1;rounded=0;" edge="1" parent="1">
          <mxGeometry width="50" height="50" relative="1" as="geometry">
            <mxPoint x="405" y="250" as="sourcePoint" />
            <mxPoint x="545" y="250" as="targetPoint" />
          </mxGeometry>
        </mxCell>
        <mxCell id="msg3_label" value="findOne({ where: { email } })" style="text;html=1;align=center;verticalAlign=middle;resizable=0;points=[];autosize=1;strokeColor=none;fillColor=none;" vertex="1" parent="1">
          <mxGeometry x="420" y="230" width="160" height="30" as="geometry" />
        </mxCell>
        
        <!-- 4. Database query -->
        <mxCell id="msg4" value="" style="endArrow=classic;html=1;rounded=0;" edge="1" parent="1">
          <mxGeometry width="50" height="50" relative="1" as="geometry">
            <mxPoint x="555" y="280" as="sourcePoint" />
            <mxPoint x="675" y="280" as="targetPoint" />
          </mxGeometry>
        </mxCell>
        <mxCell id="msg4_label" value="SELECT * FROM users&#xa;WHERE email = ?" style="text;html=1;align=center;verticalAlign=middle;resizable=0;points=[];autosize=1;strokeColor=none;fillColor=none;" vertex="1" parent="1">
          <mxGeometry x="570" y="250" width="120" height="40" as="geometry" />
        </mxCell>
        
        <!-- 5. Database response -->
        <mxCell id="msg5" value="" style="endArrow=classic;html=1;rounded=0;dashed=1;" edge="1" parent="1">
          <mxGeometry width="50" height="50" relative="1" as="geometry">
            <mxPoint x="675" y="310" as="sourcePoint" />
            <mxPoint x="555" y="310" as="targetPoint" />
          </mxGeometry>
        </mxCell>
        <mxCell id="msg5_label" value="User data" style="text;html=1;align=center;verticalAlign=middle;resizable=0;points=[];autosize=1;strokeColor=none;fillColor=none;" vertex="1" parent="1">
          <mxGeometry x="590" y="290" width="70" height="30" as="geometry" />
        </mxCell>
        
        <!-- 6. Repository response -->
        <mxCell id="msg6" value="" style="endArrow=classic;html=1;rounded=0;dashed=1;" edge="1" parent="1">
          <mxGeometry width="50" height="50" relative="1" as="geometry">
            <mxPoint x="545" y="340" as="sourcePoint" />
            <mxPoint x="405" y="340" as="targetPoint" />
          </mxGeometry>
        </mxCell>
        <mxCell id="msg6_label" value="user" style="text;html=1;align=center;verticalAlign=middle;resizable=0;points=[];autosize=1;strokeColor=none;fillColor=none;" vertex="1" parent="1">
          <mxGeometry x="460" y="320" width="40" height="30" as="geometry" />
        </mxCell>
        
        <!-- Alt frame for user not found -->
        <mxCell id="alt_frame1" value="" style="rounded=0;whiteSpace=wrap;html=1;fillColor=none;strokeColor=#000000;strokeWidth=1;" vertex="1" parent="1">
          <mxGeometry x="40" y="360" width="980" height="80" as="geometry" />
        </mxCell>
        <mxCell id="alt_label1" value="[alt] User không tồn tại" style="text;html=1;align=left;verticalAlign=top;resizable=0;points=[];autosize=1;strokeColor=none;fillColor=none;fontStyle=1;" vertex="1" parent="1">
          <mxGeometry x="45" y="365" width="140" height="30" as="geometry" />
        </mxCell>
        
        <!-- 7. Throw exception -->
        <mxCell id="msg7" value="" style="endArrow=classic;html=1;rounded=0;dashed=1;" edge="1" parent="1">
          <mxGeometry width="50" height="50" relative="1" as="geometry">
            <mxPoint x="395" y="400" as="sourcePoint" />
            <mxPoint x="255" y="400" as="targetPoint" />
          </mxGeometry>
        </mxCell>
        <mxCell id="msg7_label" value="throw UnauthorizedException" style="text;html=1;align=center;verticalAlign=middle;resizable=0;points=[];autosize=1;strokeColor=none;fillColor=none;" vertex="1" parent="1">
          <mxGeometry x="250" y="380" width="150" height="30" as="geometry" />
        </mxCell>
        
        <!-- 8. Error response -->
        <mxCell id="msg8" value="" style="endArrow=classic;html=1;rounded=0;dashed=1;" edge="1" parent="1">
          <mxGeometry width="50" height="50" relative="1" as="geometry">
            <mxPoint x="245" y="420" as="sourcePoint" />
            <mxPoint x="70" y="420" as="targetPoint" />
          </mxGeometry>
        </mxCell>
        <mxCell id="msg8_label" value="401 - Thông tin đăng nhập không chính xác" style="text;html=1;align=center;verticalAlign=middle;resizable=0;points=[];autosize=1;strokeColor=none;fillColor=none;" vertex="1" parent="1">
          <mxGeometry x="40" y="400" width="240" height="30" as="geometry" />
        </mxCell>
        
        <!-- Else part -->
        <mxCell id="else_label1" value="[else] User tồn tại" style="text;html=1;align=left;verticalAlign=top;resizable=0;points=[];autosize=1;strokeColor=none;fillColor=none;fontStyle=1;" vertex="1" parent="1">
          <mxGeometry x="45" y="450" width="110" height="30" as="geometry" />
        </mxCell>
        
        <!-- 9. Compare password -->
        <mxCell id="msg9" value="" style="endArrow=classic;html=1;rounded=0;" edge="1" parent="1">
          <mxGeometry width="50" height="50" relative="1" as="geometry">
            <mxPoint x="405" y="480" as="sourcePoint" />
            <mxPoint x="795" y="480" as="targetPoint" />
          </mxGeometry>
        </mxCell>
        <mxCell id="msg9_label" value="comparePassword(password, user.passwordHash)" style="text;html=1;align=center;verticalAlign=middle;resizable=0;points=[];autosize=1;strokeColor=none;fillColor=none;" vertex="1" parent="1">
          <mxGeometry x="490" y="460" width="260" height="30" as="geometry" />
        </mxCell>
        
        <!-- 10. Password comparison result -->
        <mxCell id="msg10" value="" style="endArrow=classic;html=1;rounded=0;dashed=1;" edge="1" parent="1">
          <mxGeometry width="50" height="50" relative="1" as="geometry">
            <mxPoint x="795" y="510" as="sourcePoint" />
            <mxPoint x="405" y="510" as="targetPoint" />
          </mxGeometry>
        </mxCell>
        <mxCell id="msg10_label" value="isValid" style="text;html=1;align=center;verticalAlign=middle;resizable=0;points=[];autosize=1;strokeColor=none;fillColor=none;" vertex="1" parent="1">
          <mxGeometry x="580" y="490" width="50" height="30" as="geometry" />
        </mxCell>
        
        <!-- Alt frame for invalid password -->
        <mxCell id="alt_frame2" value="" style="rounded=0;whiteSpace=wrap;html=1;fillColor=none;strokeColor=#000000;strokeWidth=1;" vertex="1" parent="1">
          <mxGeometry x="40" y="530" width="980" height="80" as="geometry" />
        </mxCell>
        <mxCell id="alt_label2" value="[alt] Password không đúng" style="text;html=1;align=left;verticalAlign=top;resizable=0;points=[];autosize=1;strokeColor=none;fillColor=none;fontStyle=1;" vertex="1" parent="1">
          <mxGeometry x="45" y="535" width="150" height="30" as="geometry" />
        </mxCell>
        
        <!-- 11. Throw password exception -->
        <mxCell id="msg11" value="" style="endArrow=classic;html=1;rounded=0;dashed=1;" edge="1" parent="1">
          <mxGeometry width="50" height="50" relative="1" as="geometry">
            <mxPoint x="395" y="570" as="sourcePoint" />
            <mxPoint x="255" y="570" as="targetPoint" />
          </mxGeometry>
        </mxCell>
        <mxCell id="msg11_label" value="throw UnauthorizedException" style="text;html=1;align=center;verticalAlign=middle;resizable=0;points=[];autosize=1;strokeColor=none;fillColor=none;" vertex="1" parent="1">
          <mxGeometry x="250" y="550" width="150" height="30" as="geometry" />
        </mxCell>
        
        <!-- 12. Password error response -->
        <mxCell id="msg12" value="" style="endArrow=classic;html=1;rounded=0;dashed=1;" edge="1" parent="1">
          <mxGeometry width="50" height="50" relative="1" as="geometry">
            <mxPoint x="245" y="590" as="sourcePoint" />
            <mxPoint x="70" y="590" as="targetPoint" />
          </mxGeometry>
        </mxCell>
        <mxCell id="msg12_label" value="401 - Thông tin đăng nhập không chính xác" style="text;html=1;align=center;verticalAlign=middle;resizable=0;points=[];autosize=1;strokeColor=none;fillColor=none;" vertex="1" parent="1">
          <mxGeometry x="40" y="570" width="240" height="30" as="geometry" />
        </mxCell>
        
        <!-- Else part 2 -->
        <mxCell id="else_label2" value="[else] Password đúng" style="text;html=1;align=left;verticalAlign=top;resizable=0;points=[];autosize=1;strokeColor=none;fillColor=none;fontStyle=1;" vertex="1" parent="1">
          <mxGeometry x="45" y="620" width="120" height="30" as="geometry" />
        </mxCell>
        
        <!-- 13. Generate tokens -->
        <mxCell id="msg13" value="" style="endArrow=classic;html=1;rounded=0;" edge="1" parent="1">
          <mxGeometry width="50" height="50" relative="1" as="geometry">
            <mxPoint x="405" y="650" as="sourcePoint" />
            <mxPoint x="945" y="650" as="targetPoint" />
          </mxGeometry>
        </mxCell>
        <mxCell id="msg13_label" value="generateTokens(user)" style="text;html=1;align=center;verticalAlign=middle;resizable=0;points=[];autosize=1;strokeColor=none;fillColor=none;" vertex="1" parent="1">
          <mxGeometry x="630" y="630" width="120" height="30" as="geometry" />
        </mxCell>
        
        <!-- 14. Token generation response -->
        <mxCell id="msg14" value="" style="endArrow=classic;html=1;rounded=0;dashed=1;" edge="1" parent="1">
          <mxGeometry width="50" height="50" relative="1" as="geometry">
            <mxPoint x="945" y="680" as="sourcePoint" />
            <mxPoint x="405" y="680" as="targetPoint" />
          </mxGeometry>
        </mxCell>
        <mxCell id="msg14_label" value="{ accessToken, refreshToken }" style="text;html=1;align=center;verticalAlign=middle;resizable=0;points=[];autosize=1;strokeColor=none;fillColor=none;" vertex="1" parent="1">
          <mxGeometry x="610" y="660" width="160" height="30" as="geometry" />
        </mxCell>
        
        <!-- 15. Return success -->
        <mxCell id="msg15" value="" style="endArrow=classic;html=1;rounded=0;dashed=1;" edge="1" parent="1">
          <mxGeometry width="50" height="50" relative="1" as="geometry">
            <mxPoint x="395" y="710" as="sourcePoint" />
            <mxPoint x="255" y="710" as="targetPoint" />
          </mxGeometry>
        </mxCell>
        <mxCell id="msg15_label" value="{ accessToken, refreshToken, user }" style="text;html=1;align=center;verticalAlign=middle;resizable=0;points=[];autosize=1;strokeColor=none;fillColor=none;" vertex="1" parent="1">
          <mxGeometry x="250" y="690" width="180" height="30" as="geometry" />
        </mxCell>
        
        <!-- 16. Final response -->
        <mxCell id="msg16" value="" style="endArrow=classic;html=1;rounded=0;dashed=1;" edge="1" parent="1">
          <mxGeometry width="50" height="50" relative="1" as="geometry">
            <mxPoint x="245" y="740" as="sourcePoint" />
            <mxPoint x="70" y="740" as="targetPoint" />
          </mxGeometry>
        </mxCell>
        <mxCell id="msg16_label" value="200 - Login successful" style="text;html=1;align=center;verticalAlign=middle;resizable=0;points=[];autosize=1;strokeColor=none;fillColor=none;" vertex="1" parent="1">
          <mxGeometry x="110" y="720" width="130" height="30" as="geometry" />
        </mxCell>
        
        <!-- Note box -->
        <mxCell id="note" value="Note: JWT Tokens&#xa;- Access Token: 15 phút&#xa;- Refresh Token: 7 ngày" style="rounded=1;whiteSpace=wrap;html=1;fillColor=#fff2cc;strokeColor=#d6b656;" vertex="1" parent="1">
          <mxGeometry x="40" y="770" width="200" height="60" as="geometry" />
        </mxCell>
        
      </root>
    </mxGraphModel>
  </diagram>
</mxfile> 